<svg width="20" height="20" viewBox="0 0 20 20" fill="none" xmlns="http://www.w3.org/2000/svg">
<path opacity="0.4" d="M14.334 0H5.665C2.276 0 0 2.378 0 5.917V14.084C0 17.622 2.276 20 5.665 20H14.333C17.722 20 20 17.622 20 14.084V5.917C20 2.378 17.723 0 14.334 0Z" fill="white"/>
<path d="M6.84383 7.39871C8.01383 7.39871 8.99383 8.17871 9.31383 9.24871H15.0138C15.4238 9.24871 15.7638 9.58871 15.7638 9.99871V11.8487C15.7638 12.2687 15.4238 12.5987 15.0138 12.5987C14.5938 12.5987 14.2638 12.2687 14.2638 11.8487V10.7487H12.9338V11.8487C12.9338 12.2687 12.5938 12.5987 12.1838 12.5987C11.7638 12.5987 11.4338 12.2687 11.4338 11.8487V10.7487H9.31383C8.99383 11.8187 8.01383 12.5987 6.84383 12.5987C5.40383 12.5987 4.23383 11.4387 4.23383 9.99871C4.23383 8.56871 5.40383 7.39871 6.84383 7.39871ZM6.84383 8.89871C6.23383 8.89871 5.73383 9.38871 5.73383 9.99871C5.73383 10.6087 6.23383 11.0987 6.84383 11.0987C7.44383 11.0987 7.94383 10.6087 7.94383 9.99871C7.94383 9.38871 7.44383 8.89871 6.84383 8.89871Z" fill="white"/>
</svg>
