<svg width="220" height="50" viewBox="0 0 220 50" fill="none" xmlns="http://www.w3.org/2000/svg">
<g clip-path="url(#clip0_1_3)">
<path d="M80.85 48.2456C79.5143 48.5646 77.7857 48.9633 75.5857 49.362C73.3857 49.7608 70.8714 49.9203 67.9643 49.9203C65.45 49.9203 63.3286 49.5215 61.6786 48.8038C59.95 48.0861 58.6143 47.0494 57.5929 45.6938C56.5714 44.3381 55.7857 42.7432 55.3143 40.9091C54.8429 39.075 54.6071 37.0016 54.6071 34.7687V16.1882H60.4214V33.4131C60.4214 37.4003 61.05 40.2711 62.3071 42.0255C63.5643 43.7799 65.6857 44.6571 68.5929 44.6571C69.2214 44.6571 69.85 44.6571 70.5571 44.5774C71.1857 44.4976 71.8143 44.4976 72.4429 44.4179C72.9929 44.3381 73.5429 44.2584 74.0143 44.2584C74.4857 44.1786 74.8 44.0989 75.0357 44.0191V16.1882H80.85V48.2456Z" fill="#260744"/>
<path d="M100.571 49.7608C96.9572 49.681 94.4429 48.8836 92.95 47.4482C91.4572 45.933 90.6714 43.7002 90.6714 40.5104V1.03668L96.4857 0V39.6332C96.4857 40.5901 96.5643 41.3876 96.7214 42.0255C96.8786 42.6635 97.1929 43.1419 97.5072 43.5407C97.9 43.9394 98.3714 44.1786 99 44.4179C99.6286 44.5774 100.414 44.7368 101.279 44.8963L100.571 49.7608Z" fill="#260744"/>
<path d="M136.557 32.6954C136.557 35.327 136.164 37.7193 135.457 39.7927C134.671 41.866 133.65 43.7002 132.314 45.2153C130.979 46.7305 129.329 47.9266 127.443 48.7241C125.557 49.5215 123.514 49.9202 121.314 49.9202C119.114 49.9202 117.071 49.5215 115.186 48.7241C113.3 47.9266 111.729 46.7305 110.314 45.2153C108.979 43.7002 107.879 41.866 107.171 39.7927C106.386 37.7193 106.071 35.327 106.071 32.6954C106.071 30.1435 106.464 27.7512 107.171 25.5981C107.957 23.445 108.979 21.6108 110.314 20.0957C111.65 18.5805 113.3 17.3844 115.186 16.5869C117.071 15.7895 119.114 15.3907 121.314 15.3907C123.514 15.3907 125.557 15.7895 127.443 16.5869C129.329 17.3844 130.9 18.5805 132.314 20.0957C133.65 21.6108 134.75 23.445 135.457 25.5981C136.164 27.7512 136.557 30.1435 136.557 32.6954ZM130.507 32.6954C130.507 28.9474 129.721 25.9968 128.071 23.8437C126.421 21.6906 124.221 20.5742 121.393 20.5742C118.564 20.5742 116.364 21.6906 114.714 23.8437C113.064 25.9968 112.279 28.9474 112.279 32.6954C112.279 36.4434 113.064 39.3939 114.714 41.547C116.364 43.7002 118.564 44.8166 121.393 44.8166C124.221 44.8166 126.421 43.7002 128.071 41.547C129.643 39.3939 130.507 36.4434 130.507 32.6954Z" fill="#260744"/>
<path d="M174.743 49.2025C173.8 47.6077 172.779 45.8533 171.6 43.9394C170.421 42.0255 169.164 39.9521 167.75 37.8788C166.414 35.8054 164.921 33.6523 163.507 31.4992C162.014 29.3461 160.6 27.2727 159.107 25.2791C157.614 23.2855 156.2 21.3716 154.864 19.6172C153.529 17.8628 152.193 16.2679 151.093 14.9123V49.2025H145.2V5.26315H149.993C151.957 7.33652 154.079 9.80861 156.279 12.6794C158.479 15.4705 160.679 18.421 162.879 21.3716C165.079 24.3222 167.121 27.2727 169.086 30.1435C171.05 33.0143 172.621 35.5662 173.957 37.799V5.26315H179.85V49.2025H174.743Z" fill="url(#paint0_linear_1_3)"/>
<path d="M204.993 28.0702C204.679 27.193 204.443 26.236 204.05 25.3588C203.736 24.4019 203.421 23.5247 203.107 22.5678H193.286C192.971 23.5247 192.657 24.4019 192.343 25.3588C192.029 26.3158 191.714 27.193 191.479 28.0702H185.586C186.529 25.2791 187.471 22.7273 188.257 20.4147C189.121 18.1021 189.907 15.8692 190.771 13.7958C191.636 11.7225 192.421 9.72885 193.207 7.89472C193.993 6.06059 194.857 4.22646 195.643 2.47208H200.986C201.85 4.22646 202.636 6.06059 203.421 7.89472C204.207 9.72885 205.071 11.7225 205.857 13.7958C206.643 15.8692 207.507 18.1021 208.371 20.4147C209.236 22.7273 210.1 25.2791 211.043 28.0702H204.993ZM198.157 8.29345C198 8.69217 197.843 9.17064 197.607 9.8086C197.371 10.4466 197.057 11.1643 196.743 12.0415C196.429 12.9186 196.114 13.7958 195.721 14.8325C195.329 15.8692 194.936 16.9059 194.543 18.0223H201.771C201.379 16.9059 200.986 15.8692 200.671 14.8325C200.279 13.7958 199.964 12.9186 199.65 12.0415C199.336 11.1643 199.021 10.4466 198.786 9.8086C198.55 9.17064 198.314 8.61243 198.157 8.29345Z" fill="#005CFF"/>
<path d="M214.343 2.47208H220V28.0702H214.343V2.47208Z" fill="#005CFF"/>
<path d="M0 0H31.0357L15.4786 16.9856L0 0Z" fill="url(#paint1_linear_1_3)"/>
<path d="M6.12857 0H31.0357L18.9357 13.2376L6.12857 0Z" fill="url(#paint2_linear_1_3)"/>
<path d="M52.25 49.9203H20.4286L36.3 32.4561L52.25 49.9203Z" fill="url(#paint3_linear_1_3)"/>
<path d="M46.9071 49.9202H20.4286L33.2357 35.8852L46.9071 49.9202Z" fill="url(#paint4_linear_1_3)"/>
<path d="M51.2286 0L20.4286 49.9203H0.314285L31.0357 0H51.2286Z" fill="url(#paint5_linear_1_3)"/>
<path d="M0.314285 49.9203H20.4286L51.2286 0L0.314285 49.9203Z" fill="url(#paint6_linear_1_3)"/>
</g>
<defs>
<linearGradient id="paint0_linear_1_3" x1="145.095" y1="27.2119" x2="179.803" y2="27.2119" gradientUnits="userSpaceOnUse">
<stop stop-color="#B700A6"/>
<stop offset="0.5056" stop-color="#FB4D5F"/>
<stop offset="1" stop-color="#FAC17A"/>
</linearGradient>
<linearGradient id="paint1_linear_1_3" x1="-3.11394" y1="-1.45375" x2="28.6601" y2="10.1775" gradientUnits="userSpaceOnUse">
<stop stop-color="#B700A6"/>
<stop offset="0.5056" stop-color="#FB4D5F"/>
<stop offset="1" stop-color="#FAC17A"/>
</linearGradient>
<linearGradient id="paint2_linear_1_3" x1="3.73756" y1="-1.37448" x2="29.2019" y2="7.94707" gradientUnits="userSpaceOnUse">
<stop stop-color="#B700A6" stop-opacity="0.5"/>
<stop offset="0.5056" stop-color="#FB4D5F"/>
<stop offset="1" stop-color="#FAC17A"/>
</linearGradient>
<linearGradient id="paint3_linear_1_3" x1="52.7826" y1="51.7378" x2="23.2148" y2="39.3339" gradientUnits="userSpaceOnUse">
<stop stop-color="#B700A6"/>
<stop offset="0.1151" stop-color="#BB05A1"/>
<stop offset="0.2531" stop-color="#C81494"/>
<stop offset="0.4028" stop-color="#DE2C7E"/>
<stop offset="0.5583" stop-color="#FB4D5F"/>
<stop offset="0.6074" stop-color="#FB6063"/>
<stop offset="0.7291" stop-color="#FA8A6D"/>
<stop offset="0.8394" stop-color="#FAA874"/>
<stop offset="0.9334" stop-color="#FABA78"/>
<stop offset="1" stop-color="#FAC17A"/>
</linearGradient>
<linearGradient id="paint4_linear_1_3" x1="47.1939" y1="51.7212" x2="22.6262" y2="41.4149" gradientUnits="userSpaceOnUse">
<stop stop-color="#B700A6"/>
<stop offset="0.1612" stop-color="#BA03A3"/>
<stop offset="0.2996" stop-color="#C30E99"/>
<stop offset="0.4294" stop-color="#D32089"/>
<stop offset="0.5534" stop-color="#E93872"/>
<stop offset="0.6348" stop-color="#FB4D5F"/>
<stop offset="0.6956" stop-color="#FB5962"/>
<stop offset="0.8067" stop-color="#FB7A6A"/>
<stop offset="0.9545" stop-color="#FAAF76"/>
<stop offset="1" stop-color="#FAC17A"/>
</linearGradient>
<linearGradient id="paint5_linear_1_3" x1="-1.59594" y1="54.2962" x2="52.5582" y2="-2.14145" gradientUnits="userSpaceOnUse">
<stop stop-color="#B700A6"/>
<stop offset="0.5056" stop-color="#FB4D5F"/>
<stop offset="1" stop-color="#FAC17A"/>
</linearGradient>
<linearGradient id="paint6_linear_1_3" x1="-5.80729" y1="59.1235" x2="52.0826" y2="13.0164" gradientUnits="userSpaceOnUse">
<stop stop-color="#B700A6"/>
<stop offset="0.5056" stop-color="#FB4D5F"/>
<stop offset="1" stop-color="#FAC17A"/>
</linearGradient>
<clipPath id="clip0_1_3">
<rect width="220" height="50" fill="white"/>
</clipPath>
</defs>
</svg>
